<svg width="430" height="336" viewBox="0 0 430 336" fill="none" xmlns="http://www.w3.org/2000/svg">
<g clip-path="url(#clip0)">
<path fill-rule="evenodd" clip-rule="evenodd" d="M79.5289 116.427C76.9589 119.473 71.105 119.235 71.105 124.852C78.3391 127.66 85.8111 120.139 79.5289 116.427Z" fill="#FFDD00"/>
<path fill-rule="evenodd" clip-rule="evenodd" d="M408.87 124.852C402.302 129.088 400.113 133.039 389.881 129.088C389.881 126.946 391.594 126.565 391.975 124.852C385.217 123.043 385.454 128.184 381.409 129.088C375.317 119.664 363.324 116.237 353.948 110.096C352.473 103.052 358.327 106.717 360.278 108.002C360.373 105.098 359.279 103.385 358.184 101.671C358.85 91.7232 346.19 99.0534 353.948 86.9157C361.182 85.6781 363.752 79.8711 372.938 80.5851C375.174 72.6836 367.702 74.5876 368.702 67.9238C362.277 68.019 354.805 69.1613 356.042 61.5931C356.042 60.8791 356.042 60.1652 356.042 59.4988C358.803 55.2149 367.226 56.5952 368.702 51.0738C364.99 49.1698 362.182 46.3615 360.278 42.6488C358.231 36.9369 354.376 33.0814 349.712 29.9875C350.188 25.9892 347.333 25.3228 347.618 21.5625C340.384 20.6581 335.768 22.4193 330.723 23.6569C324.679 19.849 320.11 14.5655 318.063 6.75929C316.635 6.75929 315.255 6.75929 313.827 6.75929C313.827 4.66494 313.827 2.523 313.827 0.428647C305.975 -1.04692 304.785 4.04616 296.932 2.52299C288.508 5.37892 278.609 6.71169 273.707 13.0899C264.95 12.0428 262.094 16.9454 256.811 19.4206C245.437 25.656 232.729 30.5111 220.926 36.3182C215.501 36.5085 218.69 45.3619 210.361 42.6488C205.84 45.1715 198.844 45.2191 197.701 51.0738C197.225 52.6921 197.654 55.2625 195.607 55.3101C184.328 47.6467 181.996 66.9718 168.146 63.7351C168.955 75.1112 156.534 77.2531 149.157 74.302C147.158 81.4418 136.64 80.0615 134.355 86.9633C127.216 86.1541 125.36 90.6284 121.696 93.2939C109.607 93.8651 105.514 102.433 100.565 110.192C97.2331 110.001 98.8988 104.813 94.2347 105.955C95.0438 114.428 95.5674 111.143 98.4705 118.617C97.1379 133.467 77.1014 129.612 75.2453 143.939C73.1036 143.939 72.7229 142.226 71.0095 141.845C68.3443 142.701 66.6786 144.558 66.7738 148.175C56.1606 148.842 53.2574 157.219 45.6426 160.837C44.9287 160.837 44.2148 160.837 43.5485 160.837C44.2148 165.692 37.4567 163.169 37.2187 167.167C28.7948 170.69 25.5109 179.353 16.0875 181.923C16.0875 183.351 16.0875 184.731 16.0875 186.159C13.4224 187.016 11.7566 188.872 11.8518 192.49C7.47327 194.537 -4.13935 200.248 1.28622 205.151C4.90326 219.098 17.1822 224.429 22.4174 236.804C30.7461 237.376 28.89 227.761 37.2187 228.379C39.0272 238.566 45.8806 232.663 52.02 230.474C52.0676 233.282 55.7323 232.425 56.2558 234.71C59.8728 246.039 48.165 242.088 49.926 251.608C51.3537 251.608 52.7339 251.608 54.1617 251.608C54.2569 254.321 56.8745 254.511 56.2558 257.938C55.5419 257.938 54.828 257.938 54.1617 257.938C48.165 270.885 57.9215 271.885 66.8214 266.363C64.5845 286.212 78.5292 289.877 90.0466 295.922C95.6149 296.541 91.7123 287.735 98.4705 289.591C100.85 290.02 101.754 291.924 102.706 293.828C102.801 296.731 101.707 298.445 100.612 300.158C85.2873 307.489 123.361 313.2 121.743 306.489C120.316 306.489 118.935 306.489 117.508 306.489C116.699 297.636 125.17 304.204 125.931 306.489C130.881 305.823 133.879 303.157 140.685 304.395C140.685 301.586 140.685 298.778 140.685 295.97C147.158 297.493 146.872 292.305 153.345 293.875C154.011 298.778 153.012 301.967 151.251 304.442C157.676 304.537 156.296 296.826 163.91 298.112C163.292 303.681 166.814 305.061 172.334 304.442C172.334 306.537 172.334 308.679 172.334 310.773C173.619 313.676 180.473 311.106 180.758 315.009C181.948 324.624 170.811 321.959 170.193 329.765C176.856 330.764 174.952 323.291 182.852 325.529C183.709 330.622 178.997 330.098 180.758 336.096C191.657 328.765 196.464 323.958 203.984 310.773C204.697 310.773 205.411 310.773 206.078 310.773C207.505 310.773 208.886 310.773 210.313 310.773C210.313 311.487 210.313 312.201 210.313 312.867C215.501 319.769 244.437 287.783 237.774 289.639C237.774 288.211 237.774 286.831 237.774 285.403C252.338 286.593 257.62 278.501 265.235 272.741C269.376 267.744 273.754 262.936 277.895 257.938C289.65 254.226 298.217 247.276 307.45 241.041C309.544 241.041 309.972 239.327 311.686 238.946C324.25 235.281 334.911 229.807 345.477 224.143C332.531 220.192 328.581 207.293 318.016 200.915C318.016 199.487 318.016 198.107 318.016 196.679C325.535 197.155 330.675 195.251 332.817 190.348C329.676 187.159 320.776 189.729 322.251 181.923C322.965 181.923 323.679 181.923 324.345 181.923C324.821 180.257 326.106 179.448 328.581 179.829C329.438 174.736 324.726 175.259 326.487 169.262C347.38 159.171 370.177 151.031 389.833 139.703C398.019 136.609 409.013 136.371 413.058 129.136C410.536 128.85 408.109 128.422 408.87 124.852Z" fill="#FFDD00"/>
<path fill-rule="evenodd" clip-rule="evenodd" d="M425.763 120.619C419.148 119.619 416.34 122.475 417.339 129.043C421.052 127.092 427.857 128.329 429.999 124.807C427.429 124.617 425.002 124.236 425.763 120.619Z" fill="#FFDD00"/>
<path fill-rule="evenodd" clip-rule="evenodd" d="M205.076 218.908C199.08 218.527 192.131 217.432 186.658 215.862C185.611 215.576 181.375 214.005 180.328 213.529C161.244 204.724 148.013 185.446 148.013 163.075C148.013 132.421 172.951 107.432 203.649 107.432C234.06 107.432 258.856 131.993 259.285 162.313H279.369C278.94 120.902 245.149 87.3449 203.649 87.3449C161.91 87.3449 127.929 121.33 127.929 163.075C127.929 191.872 144.11 216.909 167.811 229.713C172.095 231.998 178.234 234.33 180.328 234.949C187.086 236.948 195.368 238.281 202.744 238.852C205.267 239.042 214.024 239.138 216.546 239.138H354.993V219.098H216.737C214.928 219.098 206.885 219.051 205.076 218.908ZM216.737 187.493C215.261 187.493 207.646 187.445 206.219 187.35C203.839 187.16 200.365 186.779 198.128 186.255C195.605 185.589 193.273 184.685 192.179 184.113C184.707 180.067 179.614 172.166 179.614 163.075C179.614 149.842 190.323 139.132 203.553 139.132C216.499 139.132 227.064 149.461 227.493 162.313H246.815C246.434 138.752 227.207 119.807 203.601 119.807C179.71 119.807 160.292 139.18 160.292 163.075C160.292 179.925 169.953 194.49 184.04 201.63C186.182 202.915 190.275 204.2 191.417 204.533C195.368 205.58 200.746 206.294 205.029 206.628C206.647 206.77 214.452 206.818 216.118 206.818V206.866H354.898V187.54H216.737V187.493ZM115.459 239.042H95.2325V107.432H65.6774V87.2021H115.459V239.042ZM43.4517 117.57V137.038H65.6774V239.09H85.1429V117.57H43.4517Z" fill="#D71920"/>
<path fill-rule="evenodd" clip-rule="evenodd" d="M319.155 88.6289C311.874 88.6289 305.83 94.436 305.83 101.719C305.83 109.001 311.874 115.046 319.155 115.046C326.675 115.046 332.481 109.001 332.481 101.719C332.481 94.436 326.675 88.6289 319.155 88.6289ZM319.155 112.904C313.111 112.904 307.924 108.192 307.924 101.719C307.924 95.5783 313.111 90.7232 319.155 90.7232C325.152 90.7232 330.34 95.5783 330.34 101.719C330.34 108.192 325.2 112.904 319.155 112.904Z" fill="#D71920"/>
<path fill-rule="evenodd" clip-rule="evenodd" d="M324.248 105.336C324.248 103.86 324.058 102.48 322.345 101.956C324.439 101.195 324.677 99.8143 324.677 99.0052C324.677 95.6257 321.583 95.1973 320.346 95.1973H314.54V108.287H316.967V102.908H318.871C321.631 102.908 321.821 104.193 321.821 105.336C321.821 107.573 321.821 108.001 322.345 108.287H324.772C324.248 107.763 324.439 107.335 324.248 105.336ZM319.822 101.004H316.967V96.8632H319.394C321.107 96.8632 322.25 97.3868 322.25 99.0052C322.25 99.8143 321.821 101.004 319.822 101.004Z" fill="#D71920"/>
</g>
<defs>
<clipPath id="clip0">
<rect width="430" height="336" fill="white"/>
</clipPath>
</defs>
</svg>
