<svg width="44" height="44" viewBox="0 0 44 44" fill="none" xmlns="http://www.w3.org/2000/svg">
<path d="M28.4437 30.572C27.5556 29.8774 27.1432 28.7554 27.1432 27.628C27.1432 26.5086 27.5514 25.3953 28.4311 24.7032L30.0066 23.464C30.7106 22.9091 30.905 21.9051 30.4584 21.1227L28.5224 17.7611C28.0722 16.9807 27.1053 16.6459 26.2724 16.9824L24.415 17.7327C23.3797 18.1509 22.1986 17.9327 21.2329 17.3722C20.265 16.8105 19.5191 15.9125 19.3618 14.8046L19.0795 12.8167C18.9526 11.927 18.1814 11.2559 17.283 11.2559H13.4146C12.5162 11.2559 11.7451 11.927 11.6182 12.8184L11.3339 14.8215C11.1777 15.9219 10.4274 16.8209 9.46635 17.3793C8.50193 17.9396 7.33235 18.152 6.29749 17.7359L4.42362 16.9824C3.59067 16.6476 2.62548 16.9824 2.17528 17.7611L0.240922 21.1227C-0.208944 21.9051 -0.0129166 22.9127 0.696438 23.4656L2.25402 24.6839C3.14205 25.3785 3.55445 26.5005 3.55445 27.628C3.55445 28.7473 3.14632 29.8606 2.26653 30.5527L0.691122 31.7919C-0.0129166 32.3469 -0.206951 33.3508 0.239261 34.1332L2.17362 37.4948C2.62349 38.2735 3.59067 38.6083 4.42362 38.2735L6.28115 37.5232C7.31639 37.1049 8.49727 37.3232 9.4629 37.8836C10.4308 38.4454 11.1769 39.3434 11.3343 40.4515L11.6165 42.4392C11.7451 43.3289 12.5162 44 13.4146 44H17.283C18.1814 44 18.9526 43.3289 19.0795 42.4375L19.3638 40.4344C19.52 39.334 20.2703 38.435 21.2313 37.8767C22.1957 37.3163 23.3653 37.1039 24.4002 37.52L26.2741 38.2735C27.1107 38.61 28.0742 38.2752 28.5224 37.4948L30.4568 34.1332C30.9066 33.3508 30.7106 32.3432 30.0012 31.7903L28.4437 30.572ZM15.349 33.995C11.8468 33.995 8.99804 31.1387 8.99804 27.628C8.99804 24.1172 11.8468 21.2609 15.349 21.2609C18.8509 21.2609 21.6996 24.1172 21.6996 27.628C21.6996 31.1387 18.8509 33.995 15.349 33.995Z" fill="url(#paint0_linear)"/>
<path d="M42.5947 10.5847C42.1613 10.2692 41.9822 9.74548 41.9822 9.20947C41.9822 8.6733 42.1616 8.14945 42.5953 7.83422L43.62 7.08947C44.0053 6.80955 44.1127 6.29726 43.8711 5.8939L42.3197 3.31523C42.0781 2.9139 41.5619 2.74628 41.117 2.92671L39.948 3.39996C39.4385 3.60622 38.8687 3.52418 38.3941 3.24688C37.8985 2.95729 37.5117 2.48217 37.4375 1.91296L37.2932 0.806718C37.2318 0.346363 36.8251 0 36.3419 0H33.2409C32.7577 0 32.3489 0.346363 32.2896 0.806718L32.1452 1.91279C32.0708 2.48212 31.6831 2.95784 31.1875 3.24763C30.713 3.52501 30.1441 3.60627 29.6347 3.40004L28.4655 2.92671C28.0188 2.74628 27.5026 2.91187 27.261 3.31523L25.7117 5.8939C25.4697 6.29557 25.5772 6.80753 25.9628 7.08947L26.9873 7.83408C27.4206 8.14903 27.5988 8.67377 27.5988 9.20947C27.5988 9.74542 27.4192 10.2691 26.9858 10.5843L25.961 11.3295C25.5754 11.6094 25.468 12.1213 25.7096 12.5247L27.261 15.1034C27.5026 15.505 28.0188 15.6723 28.4637 15.4919L29.6326 15.0177C30.1421 14.811 30.7121 14.8929 31.1869 15.1702C31.6823 15.4597 32.069 15.9346 32.1432 16.5036L32.2875 17.6102C32.3489 18.0726 32.7556 18.4186 33.2388 18.4186H36.3398C36.8234 18.4186 37.2318 18.0726 37.2911 17.6119L37.4355 16.506C37.5099 15.9366 37.8977 15.4607 38.3935 15.1709C38.8678 14.8936 39.4364 14.8126 39.9457 15.0186L41.1152 15.4919C41.5619 15.6723 42.0781 15.5067 42.3197 15.1034L43.869 12.5247C44.111 12.123 44.0035 11.6111 43.6179 11.3295L42.5947 10.5847ZM34.7905 12.893C32.6713 12.893 30.9548 11.2445 30.9548 9.20947C30.9548 7.17413 32.6713 5.52561 34.7905 5.52561C36.9094 5.52561 38.6259 7.17413 38.6259 9.20947C38.6259 11.2445 36.9094 12.893 34.7905 12.893Z" fill="url(#paint1_linear)"/>
<defs>
<linearGradient id="paint0_linear" x1="4.49637" y1="16.0499" x2="27.6024" y2="37.7118" gradientUnits="userSpaceOnUse">
<stop offset="0.00128142" stop-color="#FED928"/>
<stop offset="1" stop-color="#FF8652"/>
</linearGradient>
<linearGradient id="paint1_linear" x1="28.2789" y1="2.69667" x2="41.3031" y2="15.7209" gradientUnits="userSpaceOnUse">
<stop offset="0.00128142" stop-color="#FED928"/>
<stop offset="1" stop-color="#FF8652"/>
</linearGradient>
</defs>
</svg>
