<svg width="46" height="32" viewBox="0 0 46 32" fill="none" xmlns="http://www.w3.org/2000/svg">
<path d="M40.251 0H11.5107C9.92347 0 8.63672 1.28675 8.63672 2.87402C8.63672 4.4613 9.92347 5.74805 11.5107 5.74805H40.251C41.8383 5.74805 43.125 4.4613 43.125 2.87402C43.125 1.28675 41.8383 0 40.251 0Z" fill="url(#paint0_linear)"/>
<path d="M5.76415 2.87413C5.76092 2.11314 5.456 1.38449 4.91631 0.847942C3.79535 -0.266371 1.9849 -0.266371 0.863936 0.847942C0.324159 1.38449 0.0192425 2.11314 0.016099 2.87413C-0.00536634 3.06031 -0.00536634 3.24838 0.016099 3.43456C0.0486114 3.62182 0.101601 3.80495 0.17417 3.98063C0.25132 4.15083 0.34266 4.31428 0.447203 4.46921C0.550398 4.63034 0.670838 4.7797 0.806456 4.91469C0.937224 5.04492 1.08173 5.1606 1.23756 5.25957C1.3889 5.36977 1.55298 5.46147 1.72614 5.5326C1.91664 5.6314 2.11971 5.70397 2.32969 5.74815C2.51587 5.76899 2.70394 5.76899 2.89012 5.74815C3.64905 5.74878 4.37743 5.44917 4.91631 4.91469C5.05193 4.7797 5.17237 4.63034 5.27556 4.46921C5.38011 4.31428 5.47145 4.15083 5.5486 3.98063C5.55274 3.97279 5.55684 3.96493 5.5609 3.95706C5.73231 3.62475 5.80697 3.24558 5.76415 2.87413Z" fill="url(#paint1_linear)"/>
<path d="M5.77941 16.1507C5.78549 15.9221 5.78478 15.6923 5.77889 15.4638C5.77517 15.319 5.74803 15.1754 5.69767 15.0396C5.65624 14.9279 5.60626 14.8194 5.54812 14.7151C5.47412 14.5388 5.3826 14.3703 5.27509 14.2122C5.17549 14.0528 5.0546 13.9078 4.91584 13.781C3.79488 12.6667 1.98442 12.6667 0.863462 13.781C0.323685 14.3176 0.0187685 15.0462 0.015625 15.8072C0.0211934 16.186 0.0942116 16.5606 0.231177 16.9137C0.303207 17.0838 0.389787 17.2472 0.489839 17.4023C0.599142 17.5585 0.724342 17.703 0.863462 17.8334C0.990458 17.9719 1.13542 18.0928 1.29457 18.1927C1.4459 18.303 1.6099 18.3947 1.78315 18.4657C1.95838 18.5394 2.14169 18.5925 2.32922 18.6238C2.51306 18.665 2.70122 18.6843 2.88965 18.6813C3.07583 18.7027 3.2639 18.7027 3.45008 18.6813C3.63294 18.6499 3.81149 18.5968 3.98178 18.5232C4.1597 18.4526 4.32855 18.3609 4.48473 18.2502C4.64388 18.1503 4.78884 18.0294 4.91584 17.8909C5.05433 17.7639 5.17522 17.6189 5.27509 17.4598C5.38556 17.3086 5.47726 17.1446 5.54812 16.9712C5.64629 16.7805 5.71877 16.5775 5.76368 16.3677C5.77223 16.2955 5.77748 16.2231 5.77941 16.1507Z" fill="url(#paint2_linear)"/>
<path d="M5.77945 29.0886C5.78608 28.8569 5.78527 28.6238 5.77888 28.392C5.77497 28.2505 5.74877 28.1101 5.70119 27.9767C5.65911 27.8588 5.60801 27.7441 5.5483 27.6338C5.47115 27.4636 5.37981 27.3002 5.27527 27.1453C5.1754 26.9861 5.05451 26.8411 4.91601 26.7142C3.79505 25.5998 1.9846 25.5998 0.863639 26.7142C0.725146 26.8411 0.604258 26.9861 0.504385 27.1453C0.399843 27.3002 0.308503 27.4636 0.231353 27.6338C0.156808 27.8088 0.103728 27.9922 0.0732817 28.1799C0.0327759 28.3639 0.0135558 28.5519 0.0158012 28.7403C0.0190345 29.5013 0.323951 30.23 0.863639 30.7665C0.990635 30.905 1.13559 31.0259 1.29474 31.1258C1.44608 31.2361 1.61008 31.3278 1.78333 31.3988C1.95855 31.4726 2.14186 31.5256 2.32939 31.5569C2.51324 31.5981 2.7014 31.6174 2.88983 31.6144C3.07601 31.6358 3.26408 31.6358 3.45026 31.6144C3.63312 31.583 3.81167 31.5299 3.98196 31.4563C4.15988 31.3857 4.32872 31.294 4.48491 31.1833C4.64406 31.0834 4.78902 30.9625 4.91601 30.824C5.05451 30.697 5.1754 30.5521 5.27527 30.3929C5.38583 30.2417 5.47753 30.0777 5.5483 29.9043C5.64638 29.7135 5.71885 29.5106 5.76385 29.3008C5.77222 29.2303 5.77742 29.1595 5.77945 29.0886Z" fill="url(#paint3_linear)"/>
<path d="M43.125 12.9331H11.5107C9.92347 12.9331 8.63672 14.2199 8.63672 15.8071C8.63672 17.3944 9.92347 18.6812 11.5107 18.6812H43.125C44.7123 18.6812 45.999 17.3944 45.999 15.8071C45.999 14.2199 44.7123 12.9331 43.125 12.9331Z" fill="url(#paint4_linear)"/>
<path d="M30.1919 25.8662H11.5107C9.92347 25.8662 8.63672 27.153 8.63672 28.7402C8.63672 30.3275 9.92347 31.6143 11.5107 31.6143H30.1919C31.7792 31.6143 33.0659 30.3275 33.0659 28.7402C33.0659 27.153 31.7792 25.8662 30.1919 25.8662Z" fill="url(#paint5_linear)"/>
<defs>
<linearGradient id="paint0_linear" x1="13.6883" y1="0.841571" x2="15.0066" y2="8.75101" gradientUnits="userSpaceOnUse">
<stop offset="0.00128142" stop-color="#FED928"/>
<stop offset="1" stop-color="#FF8652"/>
</linearGradient>
<linearGradient id="paint1_linear" x1="0.846648" y1="0.854294" x2="4.91366" y2="4.94158" gradientUnits="userSpaceOnUse">
<stop offset="0.00128142" stop-color="#FED928"/>
<stop offset="1" stop-color="#FF8652"/>
</linearGradient>
<linearGradient id="paint2_linear" x1="0.859984" y1="13.7875" x2="4.92737" y2="17.8637" gradientUnits="userSpaceOnUse">
<stop offset="0.00128142" stop-color="#FED928"/>
<stop offset="1" stop-color="#FF8652"/>
</linearGradient>
<linearGradient id="paint3_linear" x1="0.86001" y1="26.7206" x2="4.9274" y2="30.797" gradientUnits="userSpaceOnUse">
<stop offset="0.00128142" stop-color="#FED928"/>
<stop offset="1" stop-color="#FF8652"/>
</linearGradient>
<linearGradient id="paint4_linear" x1="14.1093" y1="13.7747" x2="15.331" y2="21.7159" gradientUnits="userSpaceOnUse">
<stop offset="0.00128142" stop-color="#FED928"/>
<stop offset="1" stop-color="#FF8652"/>
</linearGradient>
<linearGradient id="paint5_linear" x1="12.2149" y1="26.7078" x2="14.0273" y2="34.4105" gradientUnits="userSpaceOnUse">
<stop offset="0.00128142" stop-color="#FED928"/>
<stop offset="1" stop-color="#FF8652"/>
</linearGradient>
</defs>
</svg>
