<?xml version="1.0" encoding="UTF-8"?> <svg xmlns="http://www.w3.org/2000/svg" width="472" height="250" viewBox="0 0 472 250" fill="none"> <path d="M158.439 183.635C158.439 182.658 158.219 181.59 157.79 180.443C157.36 179.296 156.71 178.239 155.85 177.252C154.991 176.264 153.911 175.456 152.622 174.798C151.332 174.14 149.823 173.821 148.104 173.821H118.727C117.458 173.821 116.258 174 115.129 174.369C113.999 174.738 113.01 175.277 112.15 175.995C111.29 176.713 110.611 177.591 110.121 178.628C109.631 179.675 109.381 180.892 109.381 182.279C109.381 184.084 110.161 185.44 111.72 186.358C113.28 187.275 115.798 187.734 119.277 187.734H150.133C152.102 187.734 153.921 187.914 155.601 188.283C157.28 188.652 158.749 189.25 160.029 190.088C161.298 190.926 162.288 192.043 163.007 193.429C163.727 194.816 164.087 196.541 164.087 198.586C164.087 200.471 163.727 202.246 163.007 203.922C162.288 205.597 161.308 207.064 160.059 208.31C158.809 209.557 157.35 210.534 155.691 211.253C154.031 211.971 152.242 212.33 150.313 212.33H118.167C116.038 212.33 114.099 211.871 112.36 210.953C110.621 210.036 109.111 208.839 107.842 207.363C106.573 205.887 105.593 204.231 104.893 202.396C104.194 200.561 103.844 198.715 103.844 196.88H109.501C109.501 197.778 109.681 198.805 110.051 199.942C110.421 201.089 111.011 202.156 111.83 203.164C112.65 204.161 113.729 205.009 115.059 205.677C116.388 206.355 118.017 206.685 119.947 206.685H149.014C150.493 206.685 151.812 206.435 152.982 205.947C154.151 205.458 155.141 204.809 155.96 204.012C156.78 203.214 157.41 202.316 157.84 201.309C158.269 200.311 158.489 199.294 158.489 198.277C158.489 197.13 158.289 196.212 157.909 195.514C157.52 194.816 156.93 194.287 156.13 193.918C155.331 193.549 154.341 193.3 153.152 193.18C151.962 193.06 150.593 192.99 149.033 192.99H118.797C116.908 192.99 115.069 192.801 113.27 192.442C111.47 192.073 109.871 191.454 108.472 190.567C107.082 189.689 105.963 188.542 105.123 187.136C104.284 185.729 103.864 183.974 103.864 181.89C103.864 179.965 104.224 178.179 104.943 176.524C105.663 174.868 106.642 173.422 107.892 172.165C109.141 170.918 110.611 169.941 112.29 169.223C113.969 168.505 115.748 168.146 117.638 168.146H149.783C151.912 168.146 153.861 168.604 155.621 169.522C157.38 170.44 158.889 171.636 160.139 173.113C161.388 174.579 162.358 176.244 163.057 178.08C163.757 179.915 164.107 181.76 164.107 183.595H158.449L158.439 183.635Z" fill="white"></path> <path d="M219.102 212.34H188.246C186.357 212.34 184.588 211.981 182.928 211.263C181.269 210.545 179.81 209.567 178.56 208.32C177.311 207.074 176.331 205.617 175.612 203.962C174.892 202.306 174.532 200.541 174.532 198.656V181.85C174.532 179.975 174.892 178.199 175.612 176.544C176.331 174.888 177.311 173.442 178.56 172.185C179.81 170.928 181.269 169.961 182.928 169.243C184.588 168.525 186.357 168.166 188.246 168.166H219.102C220.991 168.166 222.761 168.525 224.42 169.243C226.079 169.961 227.529 170.938 228.788 172.185C230.037 173.432 231.017 174.888 231.737 176.544C232.456 178.199 232.816 179.965 232.816 181.85V198.656C232.816 200.541 232.456 202.306 231.737 203.962C231.017 205.617 230.037 207.064 228.788 208.32C227.538 209.567 226.089 210.545 224.42 211.263C222.761 211.981 220.991 212.34 219.102 212.34ZM227.149 196.392V184.184C227.149 182.837 226.909 181.54 226.439 180.294C225.969 179.047 225.29 177.94 224.41 176.982C223.53 176.025 222.471 175.257 221.241 174.678C220.012 174.1 218.642 173.821 217.123 173.821H190.815C189.296 173.821 187.886 174.08 186.577 174.589C185.267 175.097 184.138 175.806 183.198 176.703C182.259 177.601 181.519 178.678 180.989 179.925C180.46 181.171 180.19 182.548 180.19 184.064V196.571C180.19 197.918 180.44 199.204 180.929 200.431C181.419 201.658 182.109 202.725 182.988 203.653C183.868 204.57 184.948 205.308 186.217 205.857C187.486 206.405 188.896 206.685 190.455 206.685H216.693C218.293 206.685 219.732 206.405 221.021 205.857C222.311 205.308 223.41 204.56 224.31 203.623C225.21 202.685 225.909 201.588 226.399 200.341C226.889 199.095 227.139 197.778 227.139 196.382L227.149 196.392Z" fill="white"></path> <path d="M244.48 168.186H298.626V173.831H250.138V187.445H297.157V193.09H250.138V212.35H244.48V168.196V168.186Z" fill="white"></path> <path d="M369.924 168.186V173.831H343.126V212.34H337.469V173.831H310.921V168.186H369.924Z" fill="white"></path> <path d="M430.567 182.109C435.524 174.339 438.413 165.084 438.413 155.16C438.413 151.579 438.033 148.078 437.314 144.707L423.82 130.235C418.092 124.091 408.447 123.742 402.289 129.457C396.132 135.172 395.782 144.797 401.51 150.941L430.567 182.099V182.109Z" fill="#FF9900"></path> <path d="M471.778 187.276C471.778 187.196 471.778 187.126 471.778 187.046C471.778 186.847 471.758 186.647 471.738 186.448C471.738 186.428 471.738 186.418 471.738 186.398C471.468 183.117 470.139 179.905 467.71 177.302L443.601 151.449C444.251 154.501 444.591 157.663 444.591 160.905C444.591 174.748 438.363 187.126 428.588 195.364L401.5 224.418C395.772 230.562 396.122 240.187 402.279 245.902C408.437 251.617 418.082 251.268 423.81 245.124L467.7 198.047C470.119 195.454 471.448 192.233 471.728 188.951C471.728 188.931 471.728 188.921 471.728 188.901C471.748 188.702 471.758 188.502 471.768 188.303C471.768 188.223 471.768 188.153 471.768 188.074C471.768 187.934 471.768 187.794 471.768 187.665C471.768 187.525 471.768 187.395 471.768 187.256L471.778 187.276Z" fill="#FF9900"></path> <path d="M43.2205 193.28C38.2627 201.049 35.374 210.305 35.374 220.229C35.374 223.81 35.7538 227.311 36.4735 230.682L49.9675 245.154C55.6949 251.298 65.3406 251.647 71.4978 245.932C77.6551 240.217 78.0049 230.592 72.2775 224.448L43.2205 193.29V193.28Z" fill="#E2692B"></path> <path d="M2.00879 188.103C2.00879 188.183 2.00879 188.253 2.00879 188.333C2.00879 188.532 2.02876 188.732 2.04875 188.931C2.04875 188.951 2.04875 188.961 2.04875 188.981C2.31863 192.262 3.64806 195.474 6.07697 198.077L30.1862 223.929C29.5365 220.877 29.1966 217.716 29.1966 214.474C29.1966 200.631 35.4238 188.253 45.1994 180.015L72.2873 150.961C78.0147 144.817 77.6648 135.192 71.5076 129.477C65.3504 123.762 55.7047 124.111 49.9773 130.255L6.08698 177.332C3.66806 179.925 2.33863 183.146 2.05875 186.428C2.05875 186.448 2.05875 186.458 2.05875 186.478C2.03876 186.677 2.02879 186.877 2.01879 187.076C2.01879 187.156 2.01879 187.226 2.01879 187.305C2.01879 187.445 2.01879 187.585 2.01879 187.714C2.01879 187.854 2.01879 187.984 2.01879 188.123L2.00879 188.103Z" fill="#E2692B"></path> <path d="M216.402 33.1193C213.814 27.1848 210.295 22.0483 205.827 17.7196C201.369 13.4009 196.221 9.96991 190.394 7.4565C184.567 4.93311 178.359 3.67639 171.762 3.67639C165.165 3.67639 158.528 4.93311 152.651 7.4565C146.764 9.96991 141.646 13.391 137.318 17.7196C132.98 22.0483 129.551 27.1749 127.032 33.1193C124.504 39.0537 123.244 45.3871 123.244 52.0996V116.371C123.244 117.239 123.954 117.947 124.823 117.947H131.371C132.24 117.947 132.95 117.239 132.95 116.371V51.541C133.03 46.4543 134.059 41.6369 136.058 37.0889C138.127 32.3812 140.906 28.272 144.405 24.7911C147.893 21.3102 152.001 18.5275 156.729 16.4629C161.447 14.3983 166.465 13.361 171.772 13.361C177.08 13.361 182.088 14.3983 186.816 16.4629C191.534 18.5275 195.652 21.3002 199.14 24.7911C202.629 28.272 205.417 32.3812 207.486 37.0889C209.555 41.8065 210.595 46.8034 210.595 52.0996C210.595 57.3957 209.555 62.3926 207.486 67.1102C205.417 71.8279 202.639 75.9271 199.14 79.408C195.652 82.8889 191.534 85.6716 186.816 87.7362C182.088 89.8008 177.08 90.8381 171.772 90.8381C166.465 90.8381 161.457 89.8107 156.729 87.7362C152.001 85.6716 147.893 82.8989 144.405 79.408C143.835 78.8395 143.295 78.251 142.765 77.6526V90.11C142.765 90.6186 143.005 91.0974 143.415 91.3966C145.314 92.783 147.323 94.0496 149.452 95.1966C156.049 98.7473 163.496 100.523 171.772 100.523C178.369 100.523 184.587 99.266 190.404 96.7426C196.231 94.2292 201.369 90.8081 205.837 86.4795C210.305 82.1608 213.824 77.0542 216.412 71.1796C219.001 65.305 220.291 58.9516 220.291 52.1095C220.291 45.2675 218.991 39.0737 216.412 33.1292L216.402 33.1193Z" fill="white"></path> <path d="M93.2582 33.1193C90.7393 27.1848 87.3109 22.0483 82.9728 17.7196C78.6348 13.4009 73.4971 9.96991 67.5397 7.4565C61.5924 4.93311 55.2452 3.67639 48.5182 3.67639C41.7912 3.67639 35.2842 4.93311 29.4068 7.4565C23.5194 9.96991 18.4018 13.391 14.0737 17.7196C9.73565 22.0483 6.30715 27.1749 3.78828 33.1193C1.25941 39.0537 0 45.3871 0 52.0996C0 58.812 1.25941 65.305 3.78828 71.1696C6.30715 77.0442 9.73565 82.1508 14.0737 86.4695C18.4018 90.7982 23.5194 94.2192 29.4068 96.7326C35.2942 99.256 41.6613 100.513 48.5182 100.513C56.2847 100.513 63.5915 98.7374 70.4484 95.1867C72.5974 94.0696 74.6266 92.8428 76.5357 91.5063C76.9555 91.2071 77.2054 90.7283 77.2054 90.2097V78.0216C76.7756 78.4904 76.3458 78.9492 75.896 79.398C72.4075 82.8789 68.2894 85.6616 63.5715 87.7262C58.8436 89.7908 53.8359 90.8281 48.5282 90.8281C43.2206 90.8281 38.2129 89.8008 33.485 87.7262C28.7571 85.6616 24.6489 82.8889 21.1605 79.398C17.6721 75.9172 14.8833 71.8179 12.8143 67.1003C10.7452 62.3926 9.70567 57.3857 9.70567 52.0896C9.70567 46.7934 10.7352 41.7965 12.8143 37.0789C14.8833 32.3712 17.6621 28.262 21.1605 24.7811C24.6489 21.3002 28.7571 18.5175 33.485 16.4529C38.2029 14.3884 43.2206 13.3511 48.5282 13.3511C53.8359 13.3511 58.8436 14.3884 63.5715 16.4529C68.2894 18.5175 72.4075 21.2903 75.896 24.7811C79.3844 28.262 82.1732 32.3712 84.2423 37.0789C86.3113 41.7965 87.3509 46.7934 87.3509 52.0896V98.9269C87.3509 99.7946 88.0605 100.503 88.9301 100.503H95.4772C96.3468 100.503 97.0565 99.7946 97.0565 98.9269V52.0896C97.0565 45.3772 95.7971 39.0537 93.2682 33.1093L93.2582 33.1193Z" fill="white"></path> <path d="M341.937 56.9369C342.806 56.9369 343.516 56.2287 343.516 55.361V52.0996C343.516 45.3871 342.257 39.0637 339.728 33.1193C337.209 27.1848 333.781 22.0483 329.442 17.7196C325.104 13.4009 319.967 9.96991 314.009 7.4565C308.062 4.93311 301.715 3.67639 294.988 3.67639C288.261 3.67639 281.754 4.93311 275.877 7.4565C269.989 9.96991 264.871 13.391 260.543 17.7196C256.205 22.0483 252.777 27.1749 250.258 33.1193C247.729 39.0537 246.47 45.3871 246.47 52.0996C246.47 58.812 247.729 65.305 250.258 71.1696C252.777 77.0442 256.205 82.1508 260.543 86.4695C264.871 90.7982 269.989 94.2192 275.877 96.7326C281.764 99.256 288.131 100.513 294.988 100.513C300.296 100.513 305.403 99.645 310.321 97.8996C315.239 96.1541 319.727 93.8003 323.805 90.8281C327.883 87.8559 331.442 84.3052 334.48 80.176C337.069 76.6652 339.158 72.8651 340.767 68.7958C341.177 67.7585 340.418 66.6215 339.298 66.6215H331.941C331.312 66.6215 330.742 67.0005 330.492 67.589C327.503 74.5009 322.975 80.0563 316.918 84.2453C310.581 88.6338 303.264 90.8281 294.988 90.8281C290.07 90.8281 285.442 89.9604 281.114 88.2149C276.776 86.4695 272.868 84.1157 269.369 81.1435C265.881 78.1712 262.992 74.6305 260.733 70.4914C259.934 69.0252 259.114 66.1428 258.404 63.0808C256.725 55.8697 256.735 48.3593 258.424 41.1482C259.134 38.1162 259.944 35.2537 260.733 33.7875C262.992 29.5885 265.881 26.0079 269.369 23.0357C272.858 20.0635 276.776 17.7096 281.114 15.9642C285.452 14.2188 290.07 13.3511 294.988 13.3511C299.906 13.3511 304.364 14.2188 308.772 15.9642C313.17 17.7096 317.118 20.0635 320.606 23.0357C324.095 26.0079 326.974 29.5885 329.243 33.7875C331.202 37.418 332.601 41.2579 333.451 45.3173C333.661 46.3047 332.921 47.2423 331.911 47.2423H267.49C266.621 47.2423 265.911 47.9504 265.911 48.8181V55.351C265.911 56.2188 266.621 56.9269 267.49 56.9269H341.937V56.9369Z" fill="white"></path> <path d="M429.985 58.0964L425.412 62.6594C424.8 63.2709 424.8 64.2623 425.412 64.8738L464.095 103.473C464.708 104.084 465.701 104.084 466.314 103.473L470.887 98.9097C471.5 98.2982 471.5 97.3067 470.887 96.6952L432.205 58.0963C431.592 57.4848 430.598 57.4849 429.985 58.0964Z" fill="white"></path> <path d="M464.162 1.04375L425.458 39.6637C424.88 40.2402 424.88 41.1748 425.458 41.7513L430.158 46.4413C430.736 47.0177 431.673 47.0178 432.25 46.4413L470.954 7.8213C471.532 7.24484 471.532 6.31021 470.954 5.73374L466.254 1.04377C465.676 0.467306 464.74 0.467285 464.162 1.04375Z" fill="white"></path> <path d="M425.789 50.9427L374.972 0.9636C374.432 0.434985 373.563 0.434985 373.033 0.9636L368.185 5.80093C367.645 6.33952 367.645 7.20726 368.185 7.74585L411.846 51.3117C412.385 51.8503 412.385 52.718 411.846 53.2566L368.185 96.8225C367.645 97.3611 367.645 98.2288 368.185 98.7674L373.023 103.595C373.563 104.133 374.432 104.133 374.972 103.595L425.799 52.8776C426.339 52.339 426.339 51.4613 425.799 50.9227L425.789 50.9427Z" fill="white"></path> </svg> 